<mxfile host="65bd71144e">
    <diagram id="e04aFR6JyFE5h_fMGpHC" name="Page-1">
        <mxGraphModel dx="1685" dy="908" grid="1" gridSize="10" guides="1" tooltips="1" connect="1" arrows="1" fold="1" page="1" pageScale="1" pageWidth="850" pageHeight="1100" math="0" shadow="0">
            <root>
                <mxCell id="0"/>
                <mxCell id="1" parent="0"/>
                <mxCell id="6" style="edgeStyle=none;html=1;exitX=0.5;exitY=1;exitDx=0;exitDy=0;entryX=1;entryY=0;entryDx=0;entryDy=0;" edge="1" parent="1" source="2" target="3">
                    <mxGeometry relative="1" as="geometry"/>
                </mxCell>
                <mxCell id="7" style="edgeStyle=none;html=1;exitX=0.5;exitY=1;exitDx=0;exitDy=0;" edge="1" parent="1" source="2" target="4">
                    <mxGeometry relative="1" as="geometry"/>
                </mxCell>
                <mxCell id="2" value="What determines our tolerance to inequality ?" style="ellipse;whiteSpace=wrap;html=1;" vertex="1" parent="1">
                    <mxGeometry x="300" y="20" width="170" height="80" as="geometry"/>
                </mxCell>
                <mxCell id="24" style="edgeStyle=orthogonalEdgeStyle;curved=1;html=1;exitX=0.5;exitY=1;exitDx=0;exitDy=0;entryX=0.5;entryY=0;entryDx=0;entryDy=0;fontColor=default;" edge="1" parent="1" source="3" target="8">
                    <mxGeometry relative="1" as="geometry"/>
                </mxCell>
                <mxCell id="25" style="edgeStyle=orthogonalEdgeStyle;curved=1;html=1;exitX=0.5;exitY=1;exitDx=0;exitDy=0;entryX=0.5;entryY=0;entryDx=0;entryDy=0;fontColor=default;" edge="1" parent="1" source="3" target="9">
                    <mxGeometry relative="1" as="geometry"/>
                </mxCell>
                <mxCell id="3" value="Efficiency" style="rhombus;whiteSpace=wrap;html=1;" vertex="1" parent="1">
                    <mxGeometry x="510" y="120" width="80" height="80" as="geometry"/>
                </mxCell>
                <mxCell id="21" style="edgeStyle=orthogonalEdgeStyle;curved=1;html=1;exitX=0.5;exitY=1;exitDx=0;exitDy=0;entryX=0.5;entryY=0;entryDx=0;entryDy=0;" edge="1" parent="1" source="4" target="11">
                    <mxGeometry relative="1" as="geometry"/>
                </mxCell>
                <mxCell id="22" style="edgeStyle=orthogonalEdgeStyle;curved=1;html=1;exitX=0.5;exitY=1;exitDx=0;exitDy=0;" edge="1" parent="1" source="4" target="10">
                    <mxGeometry relative="1" as="geometry"/>
                </mxCell>
                <mxCell id="4" value="Preferences" style="rhombus;whiteSpace=wrap;html=1;" vertex="1" parent="1">
                    <mxGeometry x="160" y="120" width="80" height="80" as="geometry"/>
                </mxCell>
                <mxCell id="8" value="Efficient Resource Allocation" style="ellipse;whiteSpace=wrap;html=1;fillColor=none;fontColor=default;strokeColor=default;" vertex="1" parent="1">
                    <mxGeometry x="400" y="240" width="130" height="80" as="geometry"/>
                </mxCell>
                <mxCell id="9" value="Inequality and Growth&lt;br&gt;Tradeoff" style="ellipse;whiteSpace=wrap;html=1;fillColor=default;fontColor=default;strokeColor=default;" vertex="1" parent="1">
                    <mxGeometry x="570" y="240" width="130" height="80" as="geometry"/>
                </mxCell>
                <mxCell id="10" value="Reference Group" style="ellipse;whiteSpace=wrap;html=1;fillColor=default;fontColor=default;strokeColor=default;labelBackgroundColor=none;" vertex="1" parent="1">
                    <mxGeometry x="250" y="240" width="130" height="80" as="geometry"/>
                </mxCell>
                <mxCell id="16" style="edgeStyle=orthogonalEdgeStyle;curved=1;html=1;exitX=0.5;exitY=1;exitDx=0;exitDy=0;entryX=0.5;entryY=0;entryDx=0;entryDy=0;" edge="1" parent="1" source="11" target="12">
                    <mxGeometry relative="1" as="geometry"/>
                </mxCell>
                <mxCell id="17" style="edgeStyle=orthogonalEdgeStyle;curved=1;html=1;exitX=0.5;exitY=1;exitDx=0;exitDy=0;entryX=0.5;entryY=0;entryDx=0;entryDy=0;" edge="1" parent="1" source="11" target="13">
                    <mxGeometry relative="1" as="geometry"/>
                </mxCell>
                <mxCell id="18" style="edgeStyle=orthogonalEdgeStyle;curved=1;html=1;exitX=0.5;exitY=1;exitDx=0;exitDy=0;entryX=0.5;entryY=0;entryDx=0;entryDy=0;" edge="1" parent="1" source="11" target="14">
                    <mxGeometry relative="1" as="geometry"/>
                </mxCell>
                <mxCell id="11" value="Welfare Philosophy" style="ellipse;whiteSpace=wrap;html=1;fillColor=default;fontColor=#000000;strokeColor=default;" vertex="1" parent="1">
                    <mxGeometry x="10" y="240" width="130" height="80" as="geometry"/>
                </mxCell>
                <mxCell id="12" value="Utilitarianism" style="ellipse;whiteSpace=wrap;html=1;fillColor=default;fontColor=#000000;strokeColor=default;" vertex="1" parent="1">
                    <mxGeometry x="-30" y="350" width="90" height="60" as="geometry"/>
                </mxCell>
                <mxCell id="13" value="Liberalism" style="ellipse;whiteSpace=wrap;html=1;fillColor=default;fontColor=#000000;strokeColor=default;" vertex="1" parent="1">
                    <mxGeometry x="90" y="350" width="90" height="60" as="geometry"/>
                </mxCell>
                <mxCell id="14" value="Libertarianism" style="ellipse;whiteSpace=wrap;html=1;fillColor=default;fontColor=#000000;strokeColor=default;" vertex="1" parent="1">
                    <mxGeometry x="30" y="420" width="90" height="60" as="geometry"/>
                </mxCell>
            </root>
        </mxGraphModel>
    </diagram>
</mxfile>